<svg viewBox="0 0 900 400" xmlns="http://www.w3.org/2000/svg">
  <!-- Background -->
  <rect width="900" height="400" fill="#1a1a2e"/>
  
  <!-- Pixel Grid for "COMING SOON" -->
  <g transform="translate(150, 120)" fill="#4fd1c5">
    <!-- C -->
    <rect x="0" y="0" width="20" height="20"/>
    <rect x="20" y="0" width="20" height="20"/>
    <rect x="40" y="0" width="20" height="20"/>
    <rect x="0" y="20" width="20" height="20"/>
    <rect x="0" y="40" width="20" height="20"/>
    <rect x="0" y="60" width="20" height="20"/>
    <rect x="0" y="80" width="20" height="20"/>
    <rect x="20" y="80" width="20" height="20"/>
    <rect x="40" y="80" width="20" height="20"/>
    
    <!-- O -->
    <rect x="70" y="0" width="20" height="20"/>
    <rect x="90" y="0" width="20" height="20"/>
    <rect x="110" y="0" width="20" height="20"/>
    <rect x="70" y="20" width="20" height="20"/>
    <rect x="110" y="20" width="20" height="20"/>
    <rect x="70" y="40" width="20" height="20"/>
    <rect x="110" y="40" width="20" height="20"/>
    <rect x="70" y="60" width="20" height="20"/>
    <rect x="110" y="60" width="20" height="20"/>
    <rect x="70" y="80" width="20" height="20"/>
    <rect x="90" y="80" width="20" height="20"/>
    <rect x="110" y="80" width="20" height="20"/>
    
    <!-- M -->
    <rect x="140" y="0" width="20" height="20"/>
    <rect x="180" y="0" width="20" height="20"/>
    <rect x="140" y="20" width="20" height="20"/>
    <rect x="160" y="20" width="20" height="20"/>
    <rect x="180" y="20" width="20" height="20"/>
    <rect x="140" y="40" width="20" height="20"/>
    <rect x="160" y="40" width="20" height="20"/>
    <rect x="180" y="40" width="20" height="20"/>
    <rect x="140" y="60" width="20" height="20"/>
    <rect x="180" y="60" width="20" height="20"/>
    <rect x="140" y="80" width="20" height="20"/>
    <rect x="180" y="80" width="20" height="20"/>
    
    <!-- I -->
    <rect x="210" y="0" width="20" height="20"/>
    <rect x="230" y="0" width="20" height="20"/>
    <rect x="250" y="0" width="20" height="20"/>
    <rect x="230" y="20" width="20" height="20"/>
    <rect x="230" y="40" width="20" height="20"/>
    <rect x="230" y="60" width="20" height="20"/>
    <rect x="210" y="80" width="20" height="20"/>
    <rect x="230" y="80" width="20" height="20"/>
    <rect x="250" y="80" width="20" height="20"/>
    
    <!-- N -->
    <rect x="280" y="0" width="20" height="20"/>
    <rect x="320" y="0" width="20" height="20"/>
    <rect x="280" y="20" width="20" height="20"/>
    <rect x="300" y="20" width="20" height="20"/>
    <rect x="320" y="20" width="20" height="20"/>
    <rect x="280" y="40" width="20" height="20"/>
    <rect x="300" y="40" width="20" height="20"/>
    <rect x="320" y="40" width="20" height="20"/>
    <rect x="280" y="60" width="20" height="20"/>
    <rect x="320" y="60" width="20" height="20"/>
    <rect x="280" y="80" width="20" height="20"/>
    <rect x="320" y="80" width="20" height="20"/>
    
    <!-- G -->
    <rect x="350" y="0" width="20" height="20"/>
    <rect x="370" y="0" width="20" height="20"/>
    <rect x="390" y="0" width="20" height="20"/>
    <rect x="350" y="20" width="20" height="20"/>
    <rect x="350" y="40" width="20" height="20"/>
    <rect x="370" y="40" width="20" height="20"/>
    <rect x="390" y="40" width="20" height="20"/>
    <rect x="350" y="60" width="20" height="20"/>
    <rect x="390" y="60" width="20" height="20"/>
    <rect x="350" y="80" width="20" height="20"/>
    <rect x="370" y="80" width="20" height="20"/>
    <rect x="390" y="80" width="20" height="20"/>
    
    <!-- S -->
    <rect x="440" y="0" width="20" height="20"/>
    <rect x="460" y="0" width="20" height="20"/>
    <rect x="480" y="0" width="20" height="20"/>
    <rect x="440" y="20" width="20" height="20"/>
    <rect x="440" y="40" width="20" height="20"/>
    <rect x="460" y="40" width="20" height="20"/>
    <rect x="480" y="40" width="20" height="20"/>
    <rect x="480" y="60" width="20" height="20"/>
    <rect x="440" y="80" width="20" height="20"/>
    <rect x="460" y="80" width="20" height="20"/>
    <rect x="480" y="80" width="20" height="20"/>
    
    <!-- O -->
    <rect x="510" y="0" width="20" height="20"/>
    <rect x="530" y="0" width="20" height="20"/>
    <rect x="550" y="0" width="20" height="20"/>
    <rect x="510" y="20" width="20" height="20"/>
    <rect x="550" y="20" width="20" height="20"/>
    <rect x="510" y="40" width="20" height="20"/>
    <rect x="550" y="40" width="20" height="20"/>
    <rect x="510" y="60" width="20" height="20"/>
    <rect x="550" y="60" width="20" height="20"/>
    <rect x="510" y="80" width="20" height="20"/>
    <rect x="530" y="80" width="20" height="20"/>
    <rect x="550" y="80" width="20" height="20"/>
    
    <!-- O -->
    <rect x="580" y="0" width="20" height="20"/>
    <rect x="600" y="0" width="20" height="20"/>
    <rect x="620" y="0" width="20" height="20"/>
    <rect x="580" y="20" width="20" height="20"/>
    <rect x="620" y="20" width="20" height="20"/>
    <rect x="580" y="40" width="20" height="20"/>
    <rect x="620" y="40" width="20" height="20"/>
    <rect x="580" y="60" width="20" height="20"/>
    <rect x="620" y="60" width="20" height="20"/>
    <rect x="580" y="80" width="20" height="20"/>
    <rect x="600" y="80" width="20" height="20"/>
    <rect x="620" y="80" width="20" height="20"/>
    
    <!-- N -->
    <rect x="650" y="0" width="20" height="20"/>
    <rect x="690" y="0" width="20" height="20"/>
    <rect x="650" y="20" width="20" height="20"/>
    <rect x="670" y="20" width="20" height="20"/>
    <rect x="690" y="20" width="20" height="20"/>
    <rect x="650" y="40" width="20" height="20"/>
    <rect x="670" y="40" width="20" height="20"/>
    <rect x="690" y="40" width="20" height="20"/>
    <rect x="650" y="60" width="20" height="20"/>
    <rect x="690" y="60" width="20" height="20"/>
    <rect x="650" y="80" width="20" height="20"/>
    <rect x="690" y="80" width="20" height="20"/>
  </g>
  
  <!-- Animated blinking cursor -->
  <rect x="850" y="200" width="20" height="20" fill="#ff6b6b">
    <animate attributeName="opacity" values="1;0;1" dur="1s" repeatCount="indefinite" />
  </rect>
  
  <!-- Decorative pixels scattered around -->
  <rect x="100" y="300" width="15" height="15" fill="#4fd1c5" opacity="0.5"/>
  <rect x="150" y="320" width="15" height="15" fill="#4fd1c5" opacity="0.5"/>
  <rect x="200" y="310" width="15" height="15" fill="#4fd1c5" opacity="0.5"/>
  <rect x="600" y="300" width="15" height="15" fill="#4fd1c5" opacity="0.5"/>
  <rect x="650" y="320" width="15" height="15" fill="#4fd1c5" opacity="0.5"/>
  <rect x="700" y="310" width="15" height="15" fill="#4fd1c5" opacity="0.5"/>
  
  <!-- Animated floating pixels -->
  <g>
    <rect x="400" y="260" width="10" height="10" fill="#ff6b6b">
      <animate attributeName="y" values="260;250;260" dur="3s" repeatCount="indefinite" />
    </rect>
    <rect x="420" y="270" width="10" height="10" fill="#ff6b6b">
      <animate attributeName="y" values="270;260;270" dur="2.5s" repeatCount="indefinite" />
    </rect>
    <rect x="380" y="280" width="10" height="10" fill="#ff6b6b">
      <animate attributeName="y" values="280;270;280" dur="4s" repeatCount="indefinite" />
    </rect>
  </g>

  <!-- Loading dots animation -->
  <g transform="translate(320, 230)">
    <circle cx="0" cy="0" r="8" fill="#ffffff">
      <animate attributeName="opacity" values="0.2;1;0.2" dur="1.2s" repeatCount="indefinite" begin="0s" />
    </circle>
    <circle cx="30" cy="0" r="8" fill="#ffffff">
      <animate attributeName="opacity" values="0.2;1;0.2" dur="1.2s" repeatCount="indefinite" begin="0.4s" />
    </circle>
    <circle cx="60" cy="0" r="8" fill="#ffffff">
      <animate attributeName="opacity" values="0.2;1;0.2" dur="1.2s" repeatCount="indefinite" begin="0.8s" />
    </circle>
  </g>
</svg>