<?xml version="1.0" encoding="UTF-8"?>
<svg viewBox="0 0 64 64" xmlns="http://www.w3.org/2000/svg">
  <!-- No background rect - fully transparent -->
  
  <!-- Bulb Group -->
  <g id="bulb">
    <!-- Bulb Base -->
    <rect x="28" y="48" width="8" height="4" fill="#7D7D7D"/>
    <rect x="24" y="52" width="16" height="4" fill="#7D7D7D"/>
    <rect x="24" y="56" width="16" height="4" fill="#7D7D7D"/>
    
    <!-- Bulb Glass -->
    <rect x="20" y="44" width="24" height="4" fill="#FCEE88"/>
    <rect x="16" y="40" width="32" height="4" fill="#FCEE88"/>
    <rect x="16" y="36" width="32" height="4" fill="#FCEE88"/>
    <rect x="16" y="32" width="32" height="4" fill="#FCEE88"/>
    <rect x="16" y="28" width="32" height="4" fill="#FCEE88"/>
    <rect x="16" y="24" width="32" height="4" fill="#FCEE88"/>
    <rect x="20" y="20" width="24" height="4" fill="#FCEE88"/>
    <rect x="20" y="16" width="24" height="4" fill="#FCEE88"/>
    <rect x="24" y="12" width="16" height="4" fill="#FCEE88"/>
    
    <!-- Inner Light -->
    <rect x="24" y="24" width="4" height="4" fill="#FFFFFF"/>
    <rect x="28" y="28" width="8" height="8" fill="#FFFFFF"/>
    <rect x="36" y="28" width="4" height="4" fill="#FFFFFF"/>
    
    <!-- Highlights -->
    <rect x="24" y="20" width="4" height="4" fill="#FFFFFF" opacity="0.5"/>
    <rect x="28" y="16" width="4" height="4" fill="#FFFFFF" opacity="0.5"/>
  </g>
  
  <!-- Rays of Light (showing on state) -->
  <g id="rays">
    <!-- Top Ray -->
    <rect x="30" y="4" width="4" height="4" fill="#FCEE88"/>
    <!-- Bottom Ray -->
    <rect x="30" y="60" width="4" height="4" fill="#FCEE88" opacity="0.5"/>
    <!-- Left Ray -->
    <rect x="4" y="30" width="4" height="4" fill="#FCEE88"/>
    <!-- Right Ray -->
    <rect x="56" y="30" width="4" height="4" fill="#FCEE88"/>
    <!-- Top Left Ray -->
    <rect x="12" y="12" width="4" height="4" fill="#FCEE88"/>
    <!-- Top Right Ray -->
    <rect x="48" y="12" width="4" height="4" fill="#FCEE88"/>
    <!-- Bottom Left Ray -->
    <rect x="12" y="48" width="4" height="4" fill="#FCEE88"/>
    <!-- Bottom Right Ray -->
    <rect x="48" y="48" width="4" height="4" fill="#FCEE88"/>
  </g>
</svg>